<?xml version="1.0" encoding="UTF-8" standalone="no"?>
<!DOCTYPE svg PUBLIC "-//W3C//DTD SVG 1.1//EN"
 "http://www.w3.org/Graphics/SVG/1.1/DTD/svg11.dtd">
<!-- Generated by graphviz version 2.47.0 (20210316.0004)
 -->
<!-- Title: dependencies Pages: 1 -->
<svg width="1721pt" height="284pt"
 viewBox="0.00 0.00 1721.00 284.00" xmlns="http://www.w3.org/2000/svg" xmlns:xlink="http://www.w3.org/1999/xlink">
<g id="graph0" class="graph" transform="scale(1 1) rotate(0) translate(4 280)">
<title>dependencies</title>
<polygon fill="white" stroke="transparent" points="-4,4 -4,-280 1717,-280 1717,4 -4,4"/>
<text text-anchor="start" x="835.51" y="-42.4" font-family="Times-12" font-weight="bold" font-size="14.00">Legend</text>
<polygon fill="#ffffb3" stroke="transparent" points="622.5,-10 622.5,-30 642.5,-30 642.5,-10 622.5,-10"/>
<text text-anchor="start" x="646.13" y="-15.4" font-family="Times-12" font-size="14.00"> &#160;Declarations</text>
<polygon fill="#8dd3c7" stroke="transparent" points="735.5,-10 735.5,-30 755.5,-30 755.5,-10 735.5,-10"/>
<text text-anchor="start" x="759.23" y="-15.4" font-family="Times-12" font-size="14.00"> &#160;Module</text>
<polygon fill="#80b1d3" stroke="transparent" points="821.5,-10 821.5,-30 841.5,-30 841.5,-10 821.5,-10"/>
<text text-anchor="start" x="845.28" y="-15.4" font-family="Times-12" font-size="14.00"> &#160;Bootstrap</text>
<polygon fill="#fdb462" stroke="transparent" points="918.5,-10 918.5,-30 938.5,-30 938.5,-10 918.5,-10"/>
<text text-anchor="start" x="942.17" y="-15.4" font-family="Times-12" font-size="14.00"> &#160;Providers</text>
<polygon fill="#fb8072" stroke="transparent" points="1014.5,-10 1014.5,-30 1034.5,-30 1034.5,-10 1014.5,-10"/>
<text text-anchor="start" x="1038.23" y="-15.4" font-family="Times-12" font-size="14.00"> &#160;Exports</text>
<g id="clust1" class="cluster">
<title>cluster_AppModule</title>
<polygon fill="none" stroke="black" stroke-dasharray="1,5" points="8,-70 8,-268 1705,-268 1705,-70 8,-70"/>
</g>
<g id="clust14" class="cluster">
<title>cluster_AppModule_imports</title>
<polygon fill="none" stroke="black" points="1553,-78 1553,-130 1697,-130 1697,-78 1553,-78"/>
</g>
<g id="clust16" class="cluster">
<title>cluster_AppModule_bootstrap</title>
<polygon fill="none" stroke="black" points="794,-208 794,-260 918,-260 918,-208 794,-208"/>
</g>
<g id="clust2" class="cluster">
<title>cluster_AppModule_declarations</title>
<polygon fill="none" stroke="black" points="16,-78 16,-130 1545,-130 1545,-78 16,-78"/>
</g>
<!-- AdminComponent -->
<g id="node1" class="node">
<title>AdminComponent</title>
<polygon fill="#ffffb3" stroke="black" points="1537.22,-122 1416.78,-122 1416.78,-86 1537.22,-86 1537.22,-122"/>
<text text-anchor="middle" x="1477" y="-99.8" font-family="Times,serif" font-size="14.00">AdminComponent</text>
</g>
<!-- AppModule -->
<g id="node12" class="node">
<title>AppModule</title>
<polygon fill="#8dd3c7" stroke="black" points="897.66,-187 894.66,-191 873.66,-191 870.66,-187 814.34,-187 814.34,-151 897.66,-151 897.66,-187"/>
<text text-anchor="middle" x="856" y="-164.8" font-family="Times,serif" font-size="14.00">AppModule</text>
</g>
<!-- AdminComponent&#45;&gt;AppModule -->
<g id="edge1" class="edge">
<title>AdminComponent&#45;&gt;AppModule</title>
<path fill="none" stroke="black" d="M1477,-122.28C1477,-143.32 1477,-175 1477,-175 1477,-175 907.71,-175 907.71,-175"/>
<polygon fill="black" stroke="black" points="907.71,-171.5 897.71,-175 907.71,-178.5 907.71,-171.5"/>
</g>
<!-- AppComponent -->
<g id="node2" class="node">
<title>AppComponent</title>
<polygon fill="#ffffb3" stroke="black" points="1398.94,-122 1293.06,-122 1293.06,-86 1398.94,-86 1398.94,-122"/>
<text text-anchor="middle" x="1346" y="-99.8" font-family="Times,serif" font-size="14.00">AppComponent</text>
</g>
<!-- AppComponent&#45;&gt;AppModule -->
<g id="edge2" class="edge">
<title>AppComponent&#45;&gt;AppModule</title>
<path fill="none" stroke="black" d="M1346,-122.11C1346,-141.34 1346,-169 1346,-169 1346,-169 907.78,-169 907.78,-169"/>
<polygon fill="black" stroke="black" points="907.78,-165.5 897.78,-169 907.78,-172.5 907.78,-165.5"/>
</g>
<!-- CarritoComponent -->
<g id="node3" class="node">
<title>CarritoComponent</title>
<polygon fill="#ffffb3" stroke="black" points="1275.49,-122 1154.51,-122 1154.51,-86 1275.49,-86 1275.49,-122"/>
<text text-anchor="middle" x="1215" y="-99.8" font-family="Times,serif" font-size="14.00">CarritoComponent</text>
</g>
<!-- CarritoComponent&#45;&gt;AppModule -->
<g id="edge3" class="edge">
<title>CarritoComponent&#45;&gt;AppModule</title>
<path fill="none" stroke="black" d="M1215,-122.02C1215,-139.37 1215,-163 1215,-163 1215,-163 907.88,-163 907.88,-163"/>
<polygon fill="black" stroke="black" points="907.88,-159.5 897.88,-163 907.88,-166.5 907.88,-159.5"/>
</g>
<!-- CategoriaComponent -->
<g id="node4" class="node">
<title>CategoriaComponent</title>
<polygon fill="#ffffb3" stroke="black" points="1136.75,-122 1001.25,-122 1001.25,-86 1136.75,-86 1136.75,-122"/>
<text text-anchor="middle" x="1069" y="-99.8" font-family="Times,serif" font-size="14.00">CategoriaComponent</text>
</g>
<!-- CategoriaComponent&#45;&gt;AppModule -->
<g id="edge4" class="edge">
<title>CategoriaComponent&#45;&gt;AppModule</title>
<path fill="none" stroke="black" d="M1069,-122.24C1069,-137.57 1069,-157 1069,-157 1069,-157 907.83,-157 907.83,-157"/>
<polygon fill="black" stroke="black" points="907.83,-153.5 897.83,-157 907.83,-160.5 907.83,-153.5"/>
</g>
<!-- FooterComponent -->
<g id="node5" class="node">
<title>FooterComponent</title>
<polygon fill="#ffffb3" stroke="black" points="982.88,-122 865.12,-122 865.12,-86 982.88,-86 982.88,-122"/>
<text text-anchor="middle" x="924" y="-99.8" font-family="Times,serif" font-size="14.00">FooterComponent</text>
</g>
<!-- FooterComponent&#45;&gt;AppModule -->
<g id="edge5" class="edge">
<title>FooterComponent&#45;&gt;AppModule</title>
<path fill="none" stroke="black" d="M881.44,-122.11C881.44,-122.11 881.44,-140.99 881.44,-140.99"/>
<polygon fill="black" stroke="black" points="877.94,-140.99 881.44,-150.99 884.94,-140.99 877.94,-140.99"/>
</g>
<!-- HomeComponent -->
<g id="node6" class="node">
<title>HomeComponent</title>
<polygon fill="#ffffb3" stroke="black" points="846.55,-122 731.45,-122 731.45,-86 846.55,-86 846.55,-122"/>
<text text-anchor="middle" x="789" y="-99.8" font-family="Times,serif" font-size="14.00">HomeComponent</text>
</g>
<!-- HomeComponent&#45;&gt;AppModule -->
<g id="edge6" class="edge">
<title>HomeComponent&#45;&gt;AppModule</title>
<path fill="none" stroke="black" d="M830.47,-122.11C830.47,-122.11 830.47,-140.99 830.47,-140.99"/>
<polygon fill="black" stroke="black" points="826.97,-140.99 830.47,-150.99 833.97,-140.99 826.97,-140.99"/>
</g>
<!-- LoginComponent -->
<g id="node7" class="node">
<title>LoginComponent</title>
<polygon fill="#ffffb3" stroke="black" points="713.28,-122 598.72,-122 598.72,-86 713.28,-86 713.28,-122"/>
<text text-anchor="middle" x="656" y="-99.8" font-family="Times,serif" font-size="14.00">LoginComponent</text>
</g>
<!-- LoginComponent&#45;&gt;AppModule -->
<g id="edge7" class="edge">
<title>LoginComponent&#45;&gt;AppModule</title>
<path fill="none" stroke="black" d="M656,-122.24C656,-137.57 656,-157 656,-157 656,-157 804.07,-157 804.07,-157"/>
<polygon fill="black" stroke="black" points="804.07,-160.5 814.07,-157 804.07,-153.5 804.07,-160.5"/>
</g>
<!-- NavbarComponent -->
<g id="node8" class="node">
<title>NavbarComponent</title>
<polygon fill="#ffffb3" stroke="black" points="580.03,-122 457.97,-122 457.97,-86 580.03,-86 580.03,-122"/>
<text text-anchor="middle" x="519" y="-99.8" font-family="Times,serif" font-size="14.00">NavbarComponent</text>
</g>
<!-- NavbarComponent&#45;&gt;AppModule -->
<g id="edge8" class="edge">
<title>NavbarComponent&#45;&gt;AppModule</title>
<path fill="none" stroke="black" d="M519,-122.02C519,-139.37 519,-163 519,-163 519,-163 804.34,-163 804.34,-163"/>
<polygon fill="black" stroke="black" points="804.34,-166.5 814.34,-163 804.34,-159.5 804.34,-166.5"/>
</g>
<!-- PerfilComponent -->
<g id="node9" class="node">
<title>PerfilComponent</title>
<polygon fill="#ffffb3" stroke="black" points="440.43,-122 327.57,-122 327.57,-86 440.43,-86 440.43,-122"/>
<text text-anchor="middle" x="384" y="-99.8" font-family="Times,serif" font-size="14.00">PerfilComponent</text>
</g>
<!-- PerfilComponent&#45;&gt;AppModule -->
<g id="edge9" class="edge">
<title>PerfilComponent&#45;&gt;AppModule</title>
<path fill="none" stroke="black" d="M384,-122.11C384,-141.34 384,-169 384,-169 384,-169 804.11,-169 804.11,-169"/>
<polygon fill="black" stroke="black" points="804.11,-172.5 814.11,-169 804.11,-165.5 804.11,-172.5"/>
</g>
<!-- RecuperarComponent -->
<g id="node10" class="node">
<title>RecuperarComponent</title>
<polygon fill="#ffffb3" stroke="black" points="309.35,-122 170.65,-122 170.65,-86 309.35,-86 309.35,-122"/>
<text text-anchor="middle" x="240" y="-99.8" font-family="Times,serif" font-size="14.00">RecuperarComponent</text>
</g>
<!-- RecuperarComponent&#45;&gt;AppModule -->
<g id="edge10" class="edge">
<title>RecuperarComponent&#45;&gt;AppModule</title>
<path fill="none" stroke="black" d="M240,-122.28C240,-143.32 240,-175 240,-175 240,-175 804.14,-175 804.14,-175"/>
<polygon fill="black" stroke="black" points="804.14,-178.5 814.14,-175 804.14,-171.5 804.14,-178.5"/>
</g>
<!-- RegistroComponent -->
<g id="node11" class="node">
<title>RegistroComponent</title>
<polygon fill="#ffffb3" stroke="black" points="152.27,-122 23.73,-122 23.73,-86 152.27,-86 152.27,-122"/>
<text text-anchor="middle" x="88" y="-99.8" font-family="Times,serif" font-size="14.00">RegistroComponent</text>
</g>
<!-- RegistroComponent&#45;&gt;AppModule -->
<g id="edge11" class="edge">
<title>RegistroComponent&#45;&gt;AppModule</title>
<path fill="none" stroke="black" d="M88,-122.25C88,-145.02 88,-181 88,-181 88,-181 804.16,-181 804.16,-181"/>
<polygon fill="black" stroke="black" points="804.16,-184.5 814.16,-181 804.16,-177.5 804.16,-184.5"/>
</g>
<!-- AppComponent  -->
<g id="node14" class="node">
<title>AppComponent </title>
<polygon fill="#80b1d3" stroke="black" points="910.44,-252 801.56,-252 801.56,-216 910.44,-216 910.44,-252"/>
<text text-anchor="middle" x="856" y="-229.8" font-family="Times,serif" font-size="14.00">AppComponent </text>
</g>
<!-- AppModule&#45;&gt;AppComponent  -->
<g id="edge13" class="edge">
<title>AppModule&#45;&gt;AppComponent </title>
<path fill="none" stroke="black" stroke-dasharray="1,5" d="M856,-187.11C856,-187.11 856,-205.99 856,-205.99"/>
<polygon fill="black" stroke="black" points="852.5,-205.99 856,-215.99 859.5,-205.99 852.5,-205.99"/>
</g>
<!-- AppRoutingModule -->
<g id="node13" class="node">
<title>AppRoutingModule</title>
<polygon fill="#8dd3c7" stroke="black" points="1689.27,-122 1686.27,-126 1665.27,-126 1662.27,-122 1560.73,-122 1560.73,-86 1689.27,-86 1689.27,-122"/>
<text text-anchor="middle" x="1625" y="-99.8" font-family="Times,serif" font-size="14.00">AppRoutingModule</text>
</g>
<!-- AppRoutingModule&#45;&gt;AppModule -->
<g id="edge12" class="edge">
<title>AppRoutingModule&#45;&gt;AppModule</title>
<path fill="none" stroke="black" d="M1625,-122.25C1625,-145.02 1625,-181 1625,-181 1625,-181 907.89,-181 907.89,-181"/>
<polygon fill="black" stroke="black" points="907.89,-177.5 897.89,-181 907.89,-184.5 907.89,-177.5"/>
</g>
</g>
</svg>
