<?xml version="1.0" encoding="UTF-8" standalone="no"?>
<!DOCTYPE svg PUBLIC "-//W3C//DTD SVG 1.1//EN"
 "http://www.w3.org/Graphics/SVG/1.1/DTD/svg11.dtd">
<!-- Generated by graphviz version 2.47.0 (20210316.0004)
 -->
<!-- Title: dependencies Pages: 1 -->
<svg width="1721pt" height="284pt"
 viewBox="0.00 0.00 1721.00 284.00" xmlns="http://www.w3.org/2000/svg" xmlns:xlink="http://www.w3.org/1999/xlink">
<g id="graph0" class="graph" transform="scale(1 1) rotate(0) translate(4 280)">
<title>dependencies</title>
<polygon fill="white" stroke="transparent" points="-4,4 -4,-280 1717,-280 1717,4 -4,4"/>
<text text-anchor="start" x="835.51" y="-42.4" font-family="Times-12" font-weight="bold" font-size="14.00">Legend</text>
<polygon fill="#ffffb3" stroke="transparent" points="622.5,-10 622.5,-30 642.5,-30 642.5,-10 622.5,-10"/>
<text text-anchor="start" x="646.13" y="-15.4" font-family="Times-12" font-size="14.00"> &#160;Declarations</text>
<polygon fill="#8dd3c7" stroke="transparent" points="735.5,-10 735.5,-30 755.5,-30 755.5,-10 735.5,-10"/>
<text text-anchor="start" x="759.23" y="-15.4" font-family="Times-12" font-size="14.00"> &#160;Module</text>
<polygon fill="#80b1d3" stroke="transparent" points="821.5,-10 821.5,-30 841.5,-30 841.5,-10 821.5,-10"/>
<text text-anchor="start" x="845.28" y="-15.4" font-family="Times-12" font-size="14.00"> &#160;Bootstrap</text>
<polygon fill="#fdb462" stroke="transparent" points="918.5,-10 918.5,-30 938.5,-30 938.5,-10 918.5,-10"/>
<text text-anchor="start" x="942.17" y="-15.4" font-family="Times-12" font-size="14.00"> &#160;Providers</text>
<polygon fill="#fb8072" stroke="transparent" points="1014.5,-10 1014.5,-30 1034.5,-30 1034.5,-10 1014.5,-10"/>
<text text-anchor="start" x="1038.23" y="-15.4" font-family="Times-12" font-size="14.00"> &#160;Exports</text>
<g id="clust1" class="cluster">
<title>cluster_AppModule</title>
<polygon fill="none" stroke="black" stroke-dasharray="1,5" points="8,-70 8,-268 1705,-268 1705,-70 8,-70"/>
</g>
<g id="clust2" class="cluster">
<title>cluster_AppModule_declarations</title>
<polygon fill="none" stroke="black" points="168,-78 168,-130 1697,-130 1697,-78 168,-78"/>
</g>
<g id="clust14" class="cluster">
<title>cluster_AppModule_imports</title>
<polygon fill="none" stroke="black" points="16,-78 16,-130 160,-130 160,-78 16,-78"/>
</g>
<g id="clust16" class="cluster">
<title>cluster_AppModule_bootstrap</title>
<polygon fill="none" stroke="black" points="812,-208 812,-260 936,-260 936,-208 812,-208"/>
</g>
<!-- AdminComponent -->
<g id="node1" class="node">
<title>AdminComponent</title>
<polygon fill="#ffffb3" stroke="black" points="1689.22,-122 1568.78,-122 1568.78,-86 1689.22,-86 1689.22,-122"/>
<text text-anchor="middle" x="1629" y="-99.8" font-family="Times,serif" font-size="14.00">AdminComponent</text>
</g>
<!-- AppModule -->
<g id="node12" class="node">
<title>AppModule</title>
<polygon fill="#8dd3c7" stroke="black" points="915.66,-187 912.66,-191 891.66,-191 888.66,-187 832.34,-187 832.34,-151 915.66,-151 915.66,-187"/>
<text text-anchor="middle" x="874" y="-164.8" font-family="Times,serif" font-size="14.00">AppModule</text>
</g>
<!-- AdminComponent&#45;&gt;AppModule -->
<g id="edge1" class="edge">
<title>AdminComponent&#45;&gt;AppModule</title>
<path fill="none" stroke="black" d="M1629,-122.25C1629,-145.02 1629,-181 1629,-181 1629,-181 925.67,-181 925.67,-181"/>
<polygon fill="black" stroke="black" points="925.67,-177.5 915.67,-181 925.67,-184.5 925.67,-177.5"/>
</g>
<!-- AppComponent -->
<g id="node2" class="node">
<title>AppComponent</title>
<polygon fill="#ffffb3" stroke="black" points="1550.94,-122 1445.06,-122 1445.06,-86 1550.94,-86 1550.94,-122"/>
<text text-anchor="middle" x="1498" y="-99.8" font-family="Times,serif" font-size="14.00">AppComponent</text>
</g>
<!-- AppComponent&#45;&gt;AppModule -->
<g id="edge2" class="edge">
<title>AppComponent&#45;&gt;AppModule</title>
<path fill="none" stroke="black" d="M1498,-122.28C1498,-143.32 1498,-175 1498,-175 1498,-175 925.91,-175 925.91,-175"/>
<polygon fill="black" stroke="black" points="925.91,-171.5 915.91,-175 925.91,-178.5 925.91,-171.5"/>
</g>
<!-- CarritoComponent -->
<g id="node3" class="node">
<title>CarritoComponent</title>
<polygon fill="#ffffb3" stroke="black" points="1427.49,-122 1306.51,-122 1306.51,-86 1427.49,-86 1427.49,-122"/>
<text text-anchor="middle" x="1367" y="-99.8" font-family="Times,serif" font-size="14.00">CarritoComponent</text>
</g>
<!-- CarritoComponent&#45;&gt;AppModule -->
<g id="edge3" class="edge">
<title>CarritoComponent&#45;&gt;AppModule</title>
<path fill="none" stroke="black" d="M1367,-122.11C1367,-141.34 1367,-169 1367,-169 1367,-169 926.03,-169 926.03,-169"/>
<polygon fill="black" stroke="black" points="926.03,-165.5 916.03,-169 926.03,-172.5 926.03,-165.5"/>
</g>
<!-- CategoriaComponent -->
<g id="node4" class="node">
<title>CategoriaComponent</title>
<polygon fill="#ffffb3" stroke="black" points="1288.75,-122 1153.25,-122 1153.25,-86 1288.75,-86 1288.75,-122"/>
<text text-anchor="middle" x="1221" y="-99.8" font-family="Times,serif" font-size="14.00">CategoriaComponent</text>
</g>
<!-- CategoriaComponent&#45;&gt;AppModule -->
<g id="edge4" class="edge">
<title>CategoriaComponent&#45;&gt;AppModule</title>
<path fill="none" stroke="black" d="M1221,-122.02C1221,-139.37 1221,-163 1221,-163 1221,-163 925.86,-163 925.86,-163"/>
<polygon fill="black" stroke="black" points="925.86,-159.5 915.86,-163 925.86,-166.5 925.86,-159.5"/>
</g>
<!-- FooterComponent -->
<g id="node5" class="node">
<title>FooterComponent</title>
<polygon fill="#ffffb3" stroke="black" points="1134.88,-122 1017.12,-122 1017.12,-86 1134.88,-86 1134.88,-122"/>
<text text-anchor="middle" x="1076" y="-99.8" font-family="Times,serif" font-size="14.00">FooterComponent</text>
</g>
<!-- FooterComponent&#45;&gt;AppModule -->
<g id="edge5" class="edge">
<title>FooterComponent&#45;&gt;AppModule</title>
<path fill="none" stroke="black" d="M1076,-122.24C1076,-137.57 1076,-157 1076,-157 1076,-157 925.85,-157 925.85,-157"/>
<polygon fill="black" stroke="black" points="925.85,-153.5 915.85,-157 925.85,-160.5 925.85,-153.5"/>
</g>
<!-- HomeComponent -->
<g id="node6" class="node">
<title>HomeComponent</title>
<polygon fill="#ffffb3" stroke="black" points="998.55,-122 883.45,-122 883.45,-86 998.55,-86 998.55,-122"/>
<text text-anchor="middle" x="941" y="-99.8" font-family="Times,serif" font-size="14.00">HomeComponent</text>
</g>
<!-- HomeComponent&#45;&gt;AppModule -->
<g id="edge6" class="edge">
<title>HomeComponent&#45;&gt;AppModule</title>
<path fill="none" stroke="black" d="M899.53,-122.11C899.53,-122.11 899.53,-140.99 899.53,-140.99"/>
<polygon fill="black" stroke="black" points="896.03,-140.99 899.53,-150.99 903.03,-140.99 896.03,-140.99"/>
</g>
<!-- LoginComponent -->
<g id="node7" class="node">
<title>LoginComponent</title>
<polygon fill="#ffffb3" stroke="black" points="865.28,-122 750.72,-122 750.72,-86 865.28,-86 865.28,-122"/>
<text text-anchor="middle" x="808" y="-99.8" font-family="Times,serif" font-size="14.00">LoginComponent</text>
</g>
<!-- LoginComponent&#45;&gt;AppModule -->
<g id="edge7" class="edge">
<title>LoginComponent&#45;&gt;AppModule</title>
<path fill="none" stroke="black" d="M848.78,-122.11C848.78,-122.11 848.78,-140.99 848.78,-140.99"/>
<polygon fill="black" stroke="black" points="845.28,-140.99 848.78,-150.99 852.28,-140.99 845.28,-140.99"/>
</g>
<!-- NavbarComponent -->
<g id="node8" class="node">
<title>NavbarComponent</title>
<polygon fill="#ffffb3" stroke="black" points="732.03,-122 609.97,-122 609.97,-86 732.03,-86 732.03,-122"/>
<text text-anchor="middle" x="671" y="-99.8" font-family="Times,serif" font-size="14.00">NavbarComponent</text>
</g>
<!-- NavbarComponent&#45;&gt;AppModule -->
<g id="edge8" class="edge">
<title>NavbarComponent&#45;&gt;AppModule</title>
<path fill="none" stroke="black" d="M671,-122.24C671,-137.57 671,-157 671,-157 671,-157 821.94,-157 821.94,-157"/>
<polygon fill="black" stroke="black" points="821.94,-160.5 831.94,-157 821.94,-153.5 821.94,-160.5"/>
</g>
<!-- PerfilComponent -->
<g id="node9" class="node">
<title>PerfilComponent</title>
<polygon fill="#ffffb3" stroke="black" points="592.43,-122 479.57,-122 479.57,-86 592.43,-86 592.43,-122"/>
<text text-anchor="middle" x="536" y="-99.8" font-family="Times,serif" font-size="14.00">PerfilComponent</text>
</g>
<!-- PerfilComponent&#45;&gt;AppModule -->
<g id="edge9" class="edge">
<title>PerfilComponent&#45;&gt;AppModule</title>
<path fill="none" stroke="black" d="M536,-122.02C536,-139.37 536,-163 536,-163 536,-163 822.22,-163 822.22,-163"/>
<polygon fill="black" stroke="black" points="822.22,-166.5 832.22,-163 822.22,-159.5 822.22,-166.5"/>
</g>
<!-- RecuperarComponent -->
<g id="node10" class="node">
<title>RecuperarComponent</title>
<polygon fill="#ffffb3" stroke="black" points="461.35,-122 322.65,-122 322.65,-86 461.35,-86 461.35,-122"/>
<text text-anchor="middle" x="392" y="-99.8" font-family="Times,serif" font-size="14.00">RecuperarComponent</text>
</g>
<!-- RecuperarComponent&#45;&gt;AppModule -->
<g id="edge10" class="edge">
<title>RecuperarComponent&#45;&gt;AppModule</title>
<path fill="none" stroke="black" d="M392,-122.11C392,-141.34 392,-169 392,-169 392,-169 822.07,-169 822.07,-169"/>
<polygon fill="black" stroke="black" points="822.07,-172.5 832.07,-169 822.07,-165.5 822.07,-172.5"/>
</g>
<!-- RegistroComponent -->
<g id="node11" class="node">
<title>RegistroComponent</title>
<polygon fill="#ffffb3" stroke="black" points="304.27,-122 175.73,-122 175.73,-86 304.27,-86 304.27,-122"/>
<text text-anchor="middle" x="240" y="-99.8" font-family="Times,serif" font-size="14.00">RegistroComponent</text>
</g>
<!-- RegistroComponent&#45;&gt;AppModule -->
<g id="edge11" class="edge">
<title>RegistroComponent&#45;&gt;AppModule</title>
<path fill="none" stroke="black" d="M240,-122.28C240,-143.32 240,-175 240,-175 240,-175 821.91,-175 821.91,-175"/>
<polygon fill="black" stroke="black" points="821.91,-178.5 831.91,-175 821.91,-171.5 821.91,-178.5"/>
</g>
<!-- AppComponent  -->
<g id="node14" class="node">
<title>AppComponent </title>
<polygon fill="#80b1d3" stroke="black" points="928.44,-252 819.56,-252 819.56,-216 928.44,-216 928.44,-252"/>
<text text-anchor="middle" x="874" y="-229.8" font-family="Times,serif" font-size="14.00">AppComponent </text>
</g>
<!-- AppModule&#45;&gt;AppComponent  -->
<g id="edge13" class="edge">
<title>AppModule&#45;&gt;AppComponent </title>
<path fill="none" stroke="black" stroke-dasharray="1,5" d="M874,-187.11C874,-187.11 874,-205.99 874,-205.99"/>
<polygon fill="black" stroke="black" points="870.5,-205.99 874,-215.99 877.5,-205.99 870.5,-205.99"/>
</g>
<!-- AppRoutingModule -->
<g id="node13" class="node">
<title>AppRoutingModule</title>
<polygon fill="#8dd3c7" stroke="black" points="152.27,-122 149.27,-126 128.27,-126 125.27,-122 23.73,-122 23.73,-86 152.27,-86 152.27,-122"/>
<text text-anchor="middle" x="88" y="-99.8" font-family="Times,serif" font-size="14.00">AppRoutingModule</text>
</g>
<!-- AppRoutingModule&#45;&gt;AppModule -->
<g id="edge12" class="edge">
<title>AppRoutingModule&#45;&gt;AppModule</title>
<path fill="none" stroke="black" d="M88,-122.25C88,-145.02 88,-181 88,-181 88,-181 822.3,-181 822.3,-181"/>
<polygon fill="black" stroke="black" points="822.3,-184.5 832.3,-181 822.3,-177.5 822.3,-184.5"/>
</g>
</g>
</svg>
